# xmcd
#
# Track frame offsets: 
#        150
#        11333
#        23426
#        35989
#        47581
#        59676
#        71255
#        81832
#        92859
#        103381
#        116910
#        130835
#        144035
#        160051
#        172741
#        186946
#        198678
#        211370
#        223178
#        235215
#        247950
#        260795
#
# Disc length: 3636 seconds
#
# Revision: 3
# Processed by: cddbd v1.5.2PL0 Copyright (c) Steve Scherf et al.
# Submitted via: ExactAudioCopyFreeDBPlugin 1.0
#
DISCID=3f0e3216
DTITLE=Ray Charles - Singles Collection, 1949-1962, Plus Modern Sounds
DTITLE=in Country and Western Music, Volumes 1 and 2 [Real Gone Music]
DYEAR=2014
DGENRE=Rhythm and Blues
TTITLE0=Confession Blues
TTITLE1=I Love You, I Love You (I Will Never Let You Go)
TTITLE2=Blues Before Sunrise
TTITLE3=How Long Blues
TTITLE4=I've Had My Fun
TTITLE5=See See Rider
TTITLE6=Th' Ego Song
TTITLE7=I'll Do Anything for You But Work
TTITLE8=I Wonder Who's Kissing Her Now
TTITLE9=Baby, Let Me Hold Your Hand
TTITLE10=Kissa Me Baby
TTITLE11=Baby, Won't You Please Come Home
TTITLE12=Baby, Let Me Hear You Call My Name
TTITLE13=I Can't Do No More (Why Did You Go)
TTITLE14=Walkin' and Talkin' (To Myself)
TTITLE15=Roll with Me Baby
TTITLE16=The Snow is Falling
TTITLE17=The Sun's Gonna Shine Again
TTITLE18=Mess Around
TTITLE19=Feelin' Sad
TTITLE20=Heartbreaker
TTITLE21=It Should've Been Me
EXTD=
EXTT0=
EXTT1=
EXTT2=
EXTT3=
EXTT4=
EXTT5=
EXTT6=
EXTT7=
EXTT8=
EXTT9=
EXTT10=
EXTT11=
EXTT12=
EXTT13=
EXTT14=
EXTT15=
EXTT16=
EXTT17=
EXTT18=
EXTT19=
EXTT20=
EXTT21=
PLAYORDER=
